<?xml version="1.0" encoding="utf-8"?>
<!-- Generator: Adobe Illustrator 16.0.0, SVG Export Plug-In . SVG Version: 6.00 Build 0)  -->
<!DOCTYPE svg PUBLIC "-//W3C//DTD SVG 1.1//EN" "http://www.w3.org/Graphics/SVG/1.1/DTD/svg11.dtd">
<svg style="background: white" version="1.1" id="Capa_1" xmlns="http://www.w3.org/2000/svg" xmlns:xlink="http://www.w3.org/1999/xlink" x="0px" y="0px"
	 width="841.891px" height="595.279px" viewBox="0 0 841.891 595.279" enable-background="new 0 0 841.891 595.279"
	 xml:space="preserve">
<g>
	<path fill="#348A5D" d="M178.179,389.109c-12.104-5.255-22.817-12.479-31.828-21.491c-9.038-9.038-16.262-19.745-21.516-31.857
		c-5.209-12.003-7.849-25.03-7.849-38.676V42.887H76.125v254.195c0,19.448,3.716,37.89,11.074,54.8
		c7.315,16.832,17.51,31.848,30.279,44.615c12.742,12.749,27.746,22.935,44.595,30.25c16.929,7.345,35.363,11.088,54.805,11.088
		h20.438V396.96h-20.44C203.216,396.962,190.193,394.336,178.179,389.109z"/>
	<path fill="#348A5D" d="M554.897,207.999c3.613-3.738,7.768-6.574,12.708-8.657c4.879-2.059,10.098-3.102,15.535-3.102h137.376
		v-40.405H583.14c-10.798,0-21.244,2.109-31.014,6.272c-9.704,4.135-18.366,9.967-25.751,17.354
		c-7.384,7.376-13.213,16.035-17.337,25.721c-4.165,9.76-6.268,20.366-6.268,31.494c0,11.134,2.103,21.727,6.268,31.495
		c4.138,9.737,10.008,18.341,17.422,25.587c7.354,7.184,16.004,12.911,25.656,17.016c9.763,4.156,20.202,6.264,31.025,6.264h57.032
		c5.486,0,10.572,1.006,15.513,3.088c4.927,2.083,9.073,4.933,12.696,8.642c3.638,3.793,6.549,8.226,8.654,13.181
		c2.083,4.954,3.092,10.03,3.092,15.527c0,5.438-1.033,10.654-3.092,15.521c-2.105,5-4.895,9.182-8.516,12.809
		c-3.652,3.644-7.851,6.443-12.825,8.552c-4.95,2.068-10.022,3.079-15.522,3.079H502.772v40.4h137.402
		c10.822,0,21.252-2.104,31.024-6.254c9.696-4.138,18.346-9.968,25.726-17.359c7.389-7.377,13.22-16.038,17.357-25.734
		c4.142-9.761,6.244-20.203,6.244-31.014c0-11.129-2.103-21.721-6.244-31.481c-4.138-9.683-9.969-18.325-17.357-25.742
		c-7.38-7.369-16.029-13.2-25.75-17.344c-9.771-4.167-20.196-6.274-31-6.274h-57.032c-5.458,0-10.666-1.043-15.537-3.09
		c-4.984-2.094-9.177-4.881-12.816-8.531c-3.634-3.637-6.434-7.827-8.526-12.822c-2.063-4.861-3.095-10.089-3.095-15.519
		c0-5.492,0.999-10.565,3.104-15.502C548.358,216.186,551.265,211.756,554.897,207.999z"/>
</g>
<path fill="#348A5D" d="M265.902,335.907c-5.208-12.015-7.859-25.03-7.859-38.686c0-13.641,2.651-26.664,7.859-38.669
	c5.253-12.105,12.479-22.716,21.446-31.559c9.05-8.9,19.767-16.076,31.911-21.323c12.002-5.218,25.013-7.861,38.659-7.861
	c13.658,0,26.678,2.651,38.7,7.861c0.432,0.207,0.84,0.418,1.27,0.611l26.677-32.47c-3.85-2.076-7.791-4.024-11.843-5.789
	c-16.941-7.351-35.376-11.078-54.805-11.078c-24.505,0-47.253,5.719-67.58,16.988c-12.068,6.698-22.867,14.869-32.293,24.387V42.883
	h-40.402l0.042,266.262c1.7,17.725,6.547,34.642,14.382,50.289c4.914,9.851,10.916,18.88,17.709,27.158l26.5-32.247
	C272.254,348.645,268.757,342.507,265.902,335.907z"/>
<path d="M487.118,242.419c-7.291-16.804-17.392-31.733-30.015-44.384c-0.572-0.57-1.202-1.056-1.778-1.622l-26.046,31.696
	c8.351,8.64,15.172,18.855,20.198,30.445c5.211,12.003,7.862,25.03,7.862,38.667c0,13.656-2.651,26.673-7.862,38.695
	c-5.255,12.107-12.429,22.827-21.319,31.872c-8.866,9.004-19.468,16.229-31.538,21.447c-24.047,10.43-53.333,10.443-77.36,0
	c-5.455-2.363-10.597-5.188-15.466-8.343l-26.014,31.663c8.642,6.033,17.915,11.256,27.915,15.375
	c16.242,6.669,33.814,10.057,52.226,10.057c19.452,0,37.896-3.733,54.805-11.093c16.868-7.333,31.794-17.512,44.419-30.304
	c12.606-12.776,22.684-27.775,29.998-44.57c7.337-16.968,11.067-35.387,11.067-54.796
	C498.207,277.818,494.481,259.387,487.118,242.419z"/>
<g>
	<rect x="76.119" y="473.463" width="5.77" height="33.771"/>
	<polygon points="94.796,473.463 94.796,507.231 100.337,507.231 100.337,478.712 144.018,507.231 152.043,507.231 152.043,473.463
		146.498,473.463 146.498,502.055 102.807,473.463 	"/>
	<polygon points="170.785,477.5 214.502,477.5 214.502,473.463 165.002,473.463 165.002,507.231 170.785,507.231 170.785,494.161
		210.542,494.161 210.542,490.141 170.785,490.141 	"/>
	<path d="M266.721,472.767h-23.312c-11.288,0-18.859,7.073-18.859,17.586c0,10.341,7.759,17.575,18.859,17.575h23.312
		c11.286,0,18.857-7.053,18.857-17.575C285.58,479.841,278.008,472.767,266.721,472.767z M266.721,503.027h-23.312
		c-7.337,0-12.857-5.455-12.857-12.679c0-7.229,5.52-12.678,12.857-12.678h23.312c7.324,0,12.844,5.453,12.844,12.678
		C279.567,497.572,274.046,503.027,266.721,503.027z"/>
	<path d="M346.123,496.528c4.412-2.047,7.05-6.097,7.05-10.856c0-7.063-5.8-12.209-13.787-12.209h-42.005v33.771h5.829v-9.327
		h33.237l5.526,9.327h6.324l-5.888-8.988L346.123,496.528z M339.386,493.692h-36.172v-16.021h36.174
		c4.434,0,8.021,3.584,8.021,8.001C347.408,490.101,343.819,493.692,339.386,493.692z"/>
	<polygon points="419.67,473.463 396.739,491.362 373.253,473.463 365.444,473.463 365.444,507.231 370.918,507.231
		370.918,478.409 396.688,498.512 421.981,478.432 421.981,507.231 427.466,507.231 427.466,473.463 	"/>
	<path d="M448.084,473.463l-8.912,33.771h5.628l1.701-6.479h44.317l1.693,6.479h5.695l-8.922-33.771H448.084z M447.579,496.431
		l4.857-18.761h32.397l4.859,18.761H447.579z"/>
	<polygon points="430.992,510.748 430.992,510.577 430.942,510.748 	"/>
	<polygon points="504.658,477.671 529.885,477.671 529.885,507.231 535.672,507.231 535.672,477.671 560.904,477.671
		560.904,473.463 504.658,473.463 	"/>
	<rect x="573.877" y="473.463" width="5.764" height="33.771"/>
	<path d="M611.414,503.555c-7.451,0-12.857-5.56-12.857-13.204c0-7.228,5.52-12.678,12.857-12.678h23.313
		c4.8,0,8.946,2.402,11.198,6.302h6.609c-2.458-6.925-9.071-11.205-17.808-11.205h-23.313c-11.282,0-18.862,7.074-18.862,17.586
		c0,10.342,7.765,17.578,18.862,17.578h23.313c8.731,0,15.35-4.278,17.806-11.203h-6.587c-2.046,3.684-5.938,6.829-11.224,6.829
		L611.414,503.555L611.414,503.555z"/>
	<path d="M711.717,473.463h-41.185l-8.938,33.771h5.661l1.685-6.479h44.319l1.698,6.479h5.69L711.717,473.463z M670.018,496.431
		l4.857-18.761h32.397l4.857,18.761H670.018z"/>
</g>
</svg>
